<svg width="1316" height="529" viewBox="0 0 1316 529" fill="none" xmlns="http://www.w3.org/2000/svg">
<path d="M355.067 355.022H174.384V444.773H355.067V355.022Z" fill="black"/>
<path d="M355.067 84.8804H174.384V174.631H355.067V84.8804Z" fill="black"/>
<path d="M174.384 355.022V174.631H84.4873V355.022H174.384Z" fill="black"/>
<path d="M444.964 355.022V265.271H355.067V355.022H444.964Z" fill="black"/>
<path fill-rule="evenodd" clip-rule="evenodd" d="M383.296 6.74594H146.14C68.8631 6.74594 6.21796 69.2895 6.21796 146.441V383.212C6.21796 460.364 68.8631 522.907 146.14 522.907H383.296C460.572 522.907 523.217 460.364 523.217 383.212V146.441C523.217 69.2896 460.572 6.74594 383.296 6.74594ZM146.14 0.82666C65.5887 0.82666 0.289062 66.0204 0.289062 146.441V383.212C0.289062 463.633 65.5887 528.827 146.14 528.827H383.296C463.847 528.827 529.146 463.633 529.146 383.212V146.441C529.146 66.0204 463.847 0.82666 383.296 0.82666H146.14Z" fill="url(#paint0_radial_116_12)"/>
<path d="M691.976 169.286C706.006 169.286 718.258 172.352 728.731 178.484C739.402 184.616 747.306 192.331 752.444 201.628V171.957H779.713V338.114C779.713 352.949 776.551 366.103 770.228 377.576C763.905 389.246 754.815 398.345 742.959 404.873C731.3 411.401 717.665 414.664 702.054 414.664C680.713 414.664 662.929 409.62 648.701 399.532C634.473 389.444 626.075 375.697 623.506 358.29H650.183C653.147 368.18 659.273 376.092 668.56 382.026C677.848 388.158 689.012 391.224 702.054 391.224C716.875 391.224 728.929 386.576 738.216 377.279C747.701 367.982 752.444 354.927 752.444 338.114V303.992C747.108 313.487 739.204 321.399 728.731 327.729C718.258 334.059 706.006 337.223 691.976 337.223C677.551 337.223 664.411 333.663 652.554 326.542C640.896 319.421 631.707 309.432 624.988 296.574C618.27 283.717 614.911 269.079 614.911 252.662C614.911 236.046 618.27 221.507 624.988 209.045C631.707 196.386 640.896 186.594 652.554 179.671C664.411 172.748 677.551 169.286 691.976 169.286ZM752.444 252.958C752.444 240.694 749.974 230.013 745.033 220.914C740.093 211.815 733.375 204.891 724.878 200.144C716.578 195.199 707.39 192.726 697.312 192.726C687.234 192.726 678.045 195.1 669.746 199.847C661.447 204.595 654.827 211.518 649.887 220.617C644.946 229.716 642.476 240.398 642.476 252.662C642.476 265.123 644.946 276.003 649.887 285.299C654.827 294.399 661.447 301.421 669.746 306.366C678.045 311.113 687.234 313.487 697.312 313.487C707.39 313.487 716.578 311.113 724.878 306.366C733.375 301.421 740.093 294.399 745.033 285.299C749.974 276.003 752.444 265.222 752.444 252.958Z" fill="black"/>
<path d="M896.136 337.223C880.921 337.223 867.088 333.762 854.639 326.839C842.388 319.915 832.705 310.124 825.591 297.464C818.675 284.607 815.217 269.772 815.217 252.958C815.217 236.343 818.774 221.705 825.888 209.045C833.199 196.188 843.079 186.397 855.529 179.671C867.978 172.748 881.909 169.286 897.322 169.286C912.735 169.286 926.666 172.748 939.115 179.671C951.565 186.397 961.346 196.089 968.46 208.749C975.771 221.408 979.427 236.145 979.427 252.958C979.427 269.772 975.672 284.607 968.163 297.464C960.852 310.124 950.873 319.915 938.226 326.839C925.58 333.762 911.55 337.223 896.136 337.223ZM896.136 313.487C905.819 313.487 914.909 311.212 923.406 306.662C931.903 302.113 938.72 295.289 943.858 286.19C949.193 277.091 951.861 266.013 951.861 252.958C951.861 239.903 949.292 228.826 944.154 219.727C939.017 210.628 932.298 203.902 923.999 199.551C915.699 195.001 906.708 192.726 897.026 192.726C887.145 192.726 878.056 195.001 869.756 199.551C861.654 203.902 855.133 210.628 850.193 219.727C845.253 228.826 842.783 239.903 842.783 252.958C842.783 266.211 845.154 277.387 849.897 286.486C854.837 295.585 861.358 302.41 869.46 306.959C877.561 311.311 886.454 313.487 896.136 313.487Z" fill="black"/>
<path d="M1072.39 337.223C1059.95 337.223 1048.78 335.146 1038.9 330.993C1029.02 326.641 1021.21 320.707 1015.48 313.19C1009.75 305.476 1006.59 296.673 1006 286.783H1033.86C1034.65 294.893 1038.41 301.52 1045.13 306.662C1052.04 311.805 1061.03 314.377 1072.1 314.377C1082.37 314.377 1090.48 312.102 1096.4 307.553C1102.33 303.003 1105.3 297.267 1105.3 290.344C1105.3 283.222 1102.13 277.981 1095.81 274.618C1089.49 271.057 1079.71 267.596 1066.47 264.233C1054.41 261.068 1044.53 257.903 1036.83 254.738C1029.32 251.376 1022.8 246.53 1017.26 240.2C1011.93 233.672 1009.26 225.167 1009.26 214.683C1009.26 206.375 1011.73 198.759 1016.67 191.836C1021.61 184.913 1028.63 179.473 1037.72 175.517C1046.8 171.363 1057.18 169.286 1068.84 169.286C1086.82 169.286 1101.34 173.836 1112.41 182.935C1123.48 192.034 1129.4 204.496 1130.19 220.32H1103.22C1102.63 211.815 1099.17 204.99 1092.85 199.847C1086.72 194.704 1078.42 192.133 1067.95 192.133C1058.27 192.133 1050.56 194.21 1044.83 198.364C1039.1 202.518 1036.23 207.957 1036.23 214.683C1036.23 220.024 1037.91 224.474 1041.27 228.035C1044.83 231.397 1049.18 234.167 1054.31 236.343C1059.65 238.321 1066.96 240.595 1076.25 243.167C1087.91 246.332 1097.39 249.497 1104.7 252.662C1112.01 255.629 1118.24 260.178 1123.38 266.31C1128.71 272.442 1131.48 280.453 1131.68 290.344C1131.68 299.245 1129.21 307.256 1124.27 314.377C1119.33 321.498 1112.31 327.135 1103.22 331.289C1094.33 335.245 1084.05 337.223 1072.39 337.223Z" fill="black"/>
<path d="M1250.38 168.99C1262.63 168.99 1273.69 171.66 1283.57 177.001C1293.45 182.144 1301.16 189.957 1306.69 200.441C1312.42 210.924 1315.29 223.683 1315.29 238.716V334.553H1288.61V242.573C1288.61 226.353 1284.56 213.99 1276.46 205.485C1268.36 196.781 1257.29 192.43 1243.26 192.43C1229.03 192.43 1217.67 196.88 1209.18 205.782C1200.88 214.683 1196.73 227.639 1196.73 244.65V334.553H1169.75V114.989H1196.73V195.1C1202.06 186.792 1209.37 180.364 1218.66 175.814C1228.15 171.264 1238.72 168.99 1250.38 168.99Z" fill="black"/>
<defs>
<radialGradient id="paint0_radial_116_12" cx="0" cy="0" r="1" gradientUnits="userSpaceOnUse" gradientTransform="translate(115.021 38.0347) rotate(19.5761) scale(969.478 616.629)">
<stop stop-color="#070707" stop-opacity="0.82"/>
<stop offset="1" stop-opacity="0"/>
</radialGradient>
</defs>
</svg>
